<svg width="396" height="80" viewBox="0 0 396 80" fill="none" xmlns="http://www.w3.org/2000/svg">
<g clip-path="url(#clip0_1247_9)">
<g clip-path="url(#clip1_1247_9)">
<g clip-path="url(#clip2_1247_9)">
<g clip-path="url(#clip3_1247_9)">
<g clip-path="url(#clip4_1247_9)">
<g clip-path="url(#clip5_1247_9)">
<path d="M36.2913 42.9539C36.2913 43.0118 36.3086 43.0523 36.3434 43.0755C36.3665 43.1102 36.4071 43.1276 36.465 43.1276H70.3369V68.6618H0.248047C0.248047 65.072 0.248047 61.4821 0.248047 57.8923C0.248047 54.3025 0.248047 50.6952 0.248047 47.0707C0.248047 43.4576 0.248047 39.8562 0.248047 36.2664C0.248047 32.6765 0.248047 29.0867 0.248047 25.4968C0.248047 21.8491 0.248047 18.184 0.248047 14.5015C0.248047 10.8306 0.248047 7.17125 0.248047 3.5235H36.2913C36.2913 6.82384 36.2913 10.1068 36.2913 13.3724C36.2913 16.6496 36.2913 19.9384 36.2913 23.2387C36.2913 26.539 36.2913 29.822 36.2913 33.0876C36.2913 36.3648 36.2913 39.6536 36.2913 42.9539ZM103.253 68.6618H73.203C73.203 65.9984 73.203 63.3466 73.203 60.7063C73.203 58.0776 73.203 55.4431 73.203 52.8028C73.203 50.1741 73.203 47.557 73.203 44.9515C73.203 43.8514 73.203 42.7513 73.203 41.6511C73.203 40.551 73.203 39.4509 73.203 38.3508C76.5612 38.3508 79.9021 38.3508 83.2256 38.3508C86.5607 38.3508 89.9074 38.3508 93.2656 38.3508C96.6238 38.3508 99.9531 38.3508 103.253 38.3508C103.253 41.709 103.253 45.0673 103.253 48.4255C103.253 51.7838 103.253 55.1536 103.253 58.535C103.253 61.928 103.253 65.3036 103.253 68.6618ZM73.203 38.3508C73.203 34.4135 73.203 30.4763 73.203 26.539C73.203 22.6018 73.203 18.6935 73.203 14.8141H103.253C103.253 16.7249 103.253 18.6356 103.253 20.5463C103.253 22.457 103.253 24.3678 103.253 26.2785C103.253 28.1892 103.253 30.0999 103.253 32.0107C103.253 32.0107 103.236 32.0222 103.201 32.0454C103.178 32.0802 103.167 32.0975 103.167 32.0975C98.1872 33.1397 93.1903 34.1819 88.1761 35.2242C83.1735 36.2664 78.1825 37.3086 73.203 38.3508ZM105.859 32.0107C105.859 28.7103 106.797 25.8442 108.673 23.4124C110.561 20.9806 113.12 18.9367 116.351 17.2807C119.593 15.6363 123.276 14.4088 127.398 13.5982C131.509 12.7876 135.788 12.3823 140.235 12.3823C145.735 12.3823 150.848 12.8745 155.573 13.8588C160.297 14.8431 164.57 16.1459 168.392 17.7671V37.9165C166.771 36.7006 164.64 35.6584 162 34.7899C159.359 33.9214 156.58 33.2555 153.662 32.7923C150.744 32.3291 147.982 32.0975 145.376 32.0975C143.639 32.0975 142.059 32.196 140.634 32.3928C139.21 32.6013 138.081 32.9081 137.247 33.3134C136.413 33.7187 135.996 34.2398 135.996 34.8768C135.996 35.2242 136.124 35.4847 136.378 35.6584C136.633 35.8321 137.027 35.9479 137.56 36.0058C138.081 36.0637 138.747 36.0927 139.557 36.0927C140.877 36.0927 142.064 36.0927 143.118 36.0927C144.16 36.0927 145.318 36.0927 146.592 36.0927C149.487 36.0927 152.394 36.278 155.312 36.6485C158.242 37.0307 160.905 37.7718 163.302 38.8719C165.699 39.972 167.622 41.5469 169.069 43.5966C170.517 45.6579 171.241 48.3676 171.241 51.7259C171.241 55.2578 170.274 58.2513 168.34 60.7063C166.394 63.1728 163.76 65.1704 160.436 66.699C157.101 68.2392 153.367 69.3566 149.232 70.0515C145.098 70.7463 140.796 71.0937 136.326 71.0937C131.069 71.0937 125.875 70.6015 120.745 69.6172C115.627 68.6329 111.244 67.1854 107.596 65.2746V44.083C109.044 45.6463 111.111 46.9317 113.797 47.9392C116.495 48.9582 119.419 49.7109 122.569 50.1973C125.731 50.6952 128.701 50.9442 131.48 50.9442C133.263 50.9442 134.879 50.84 136.326 50.6315C137.774 50.4347 138.92 50.1162 139.766 49.6762C140.611 49.2477 141.034 48.6861 141.034 47.9913C141.034 47.7018 140.947 47.4991 140.773 47.3833C140.599 47.2675 140.322 47.1807 139.939 47.1228C139.557 47.0649 139.054 47.0359 138.428 47.0359C137.56 47.0359 136.662 47.0359 135.736 47.0359C134.809 47.0359 133.97 47.0359 133.217 47.0359C131.191 47.0359 128.944 46.9606 126.477 46.8101C124.022 46.6711 121.579 46.3527 119.147 45.8547C116.704 45.3684 114.486 44.5867 112.494 43.5098C110.503 42.4444 108.893 40.9679 107.666 39.0803C106.461 37.2044 105.859 34.8478 105.859 32.0107ZM226.738 38.4377H203.81C204.505 35.7742 205.188 33.1397 205.859 30.5342C206.519 27.9287 207.185 25.3058 207.857 22.6655C208.517 20.0368 209.166 17.4197 209.802 14.8141H226.738V38.4377ZM174.02 45.9937C174.02 41.0142 174.02 35.7742 174.02 30.2736C174.02 24.7731 174.02 19.562 174.02 14.6404L203.723 7.51865C203.723 10.3558 203.723 13.2508 203.723 16.2038C203.723 19.1567 203.723 22.1096 203.723 25.0626C203.723 27.2049 203.723 29.3472 203.723 31.4896C203.723 33.6319 203.723 35.7453 203.723 37.8297C203.723 37.8876 203.723 37.9165 203.723 37.9165C203.723 37.9165 203.723 37.9455 203.723 38.0034C203.723 39.1035 203.972 40.0589 204.47 40.8695C204.956 41.6801 205.651 42.3575 206.554 42.9018C207.446 43.4576 208.5 43.8803 209.716 44.1698C210.931 44.4593 212.292 44.6041 213.798 44.6041C215.477 44.6041 217.185 44.3435 218.922 43.8224C220.659 43.3013 222.24 42.5776 223.664 41.6511C225.077 40.7247 226.101 39.6536 226.738 38.4377V64.8404C224.249 66.809 221.035 68.2739 217.098 69.2351C213.161 70.1846 209.223 70.6594 205.286 70.6594C199.322 70.6594 193.984 69.6867 189.271 67.7412C184.546 65.8073 180.823 62.9991 178.102 59.3167C175.38 55.6458 174.02 51.2048 174.02 45.9937ZM260.263 68.6618H230.212C230.212 65.9984 230.212 63.3466 230.212 60.7063C230.212 58.0776 230.212 55.4431 230.212 52.8028C230.212 50.1741 230.212 47.557 230.212 44.9515C230.212 43.8514 230.212 42.7513 230.212 41.6511C230.212 40.551 230.212 39.4509 230.212 38.3508C233.571 38.3508 236.917 38.3508 240.252 38.3508C243.576 38.3508 246.917 38.3508 250.275 38.3508C253.633 38.3508 256.963 38.3508 260.263 38.3508C260.263 41.709 260.263 45.0673 260.263 48.4255C260.263 51.7838 260.263 55.1536 260.263 58.535C260.263 61.928 260.263 65.3036 260.263 68.6618ZM230.212 38.3508C230.212 34.4135 230.212 30.4763 230.212 26.539C230.212 22.6018 230.212 18.6935 230.212 14.8141H260.263C260.263 16.7249 260.263 18.6356 260.263 20.5463C260.263 22.457 260.263 24.3678 260.263 26.2785C260.263 28.1892 260.263 30.0999 260.263 32.0107C260.263 32.0107 260.251 32.0222 260.228 32.0454C260.193 32.0802 260.176 32.0975 260.176 32.0975C255.197 33.1397 250.206 34.1819 245.203 35.2242C240.189 36.2664 235.192 37.3086 230.212 38.3508ZM301.691 0.917969C294.917 0.917969 289.04 2.10493 284.06 4.47886C279.081 6.85279 275.23 10.1937 272.509 14.5015C269.788 18.8209 268.427 23.8467 268.427 29.5788V30.4473C267.674 32.6476 266.933 34.8768 266.204 37.1349C265.486 39.393 264.75 41.6338 263.998 43.8572C263.245 46.0921 262.492 48.3387 261.739 50.5968H268.34C268.398 50.5968 268.427 50.5968 268.427 50.5968C268.427 50.5968 268.427 50.6258 268.427 50.6837C268.427 52.9997 268.427 55.0667 268.427 56.8848C268.427 58.7145 268.427 60.5557 268.427 62.4086C268.427 64.2614 268.427 66.3458 268.427 68.6618H298.738C298.738 66.3458 298.738 64.2614 298.738 62.4086C298.738 60.5557 298.738 58.7145 298.738 56.8848C298.738 55.0667 298.738 52.9997 298.738 50.6837C298.738 50.6258 298.738 50.5968 298.738 50.5968C298.738 50.5968 298.767 50.5968 298.825 50.5968H308.465L314.719 30.4473H298.825C298.825 30.4473 298.807 30.4473 298.773 30.4473C298.75 30.4473 298.738 30.43 298.738 30.3952C298.738 30.3721 298.738 30.3605 298.738 30.3605C298.738 29.492 298.854 28.7103 299.085 28.0155C299.317 27.3207 299.647 26.7128 300.075 26.1916C300.516 25.6705 301.054 25.2479 301.691 24.9236C302.328 24.611 303.052 24.3678 303.862 24.1941C304.673 24.0204 305.541 23.9335 306.468 23.9335C308.494 23.9335 310.376 24.4662 312.113 25.5316C313.85 26.6085 314.719 28.2471 314.719 30.4473L322.535 5.52108C321.203 4.71047 319.38 3.95776 317.064 3.26295C314.748 2.56814 312.24 2.00071 309.542 1.56067C306.856 1.1322 304.239 0.917969 301.691 0.917969ZM374.733 79.084H345.29C346.332 77.926 347.346 76.7679 348.33 75.6099C349.314 74.4519 350.31 73.2939 351.318 72.1359C352.337 70.9779 353.338 69.8199 354.323 68.6618H338.082C336.171 62.6402 334.26 56.6474 332.349 50.6837C330.439 44.7199 328.528 38.7387 326.617 32.7402C324.706 26.7533 322.796 20.7779 320.885 14.8141H352.759C353.802 21.0095 354.826 27.2049 355.834 33.4003C356.853 39.5957 357.884 45.791 358.926 51.9864C358.926 51.9864 358.937 52.0733 358.961 52.247C358.995 52.4207 359.013 52.5075 359.013 52.5075C359.013 52.5075 359.024 52.4612 359.047 52.3686C359.082 52.2875 359.099 52.218 359.099 52.1601C359.099 52.1022 359.099 52.0733 359.099 52.0733C359.852 47.9044 360.576 43.7472 361.271 39.6015C361.966 35.4673 362.672 31.3274 363.39 27.1817C364.119 23.0476 364.832 18.9251 365.526 14.8141H395.751C393.435 21.9938 391.101 29.1446 388.75 36.2664C386.411 43.3882 384.084 50.51 381.768 57.6318C379.452 64.7535 377.107 71.9043 374.733 79.084Z" fill="black"/>
</g>
</g>
</g>
</g>
</g>
</g>
<defs>
<clipPath id="clip0_1247_9">
<rect width="395.52" height="78.166" fill="white" transform="translate(0.240234 0.917969)"/>
</clipPath>
<clipPath id="clip1_1247_9">
<rect width="395.52" height="78.166" fill="white" transform="translate(0.240234 0.917969)"/>
</clipPath>
<clipPath id="clip2_1247_9">
<rect width="395.52" height="78.166" fill="white" transform="translate(0.240234 0.917969)"/>
</clipPath>
<clipPath id="clip3_1247_9">
<rect width="395.52" height="78.166" fill="white" transform="translate(0.240234 0.917969)"/>
</clipPath>
<clipPath id="clip4_1247_9">
<rect width="395.52" height="78.166" fill="white" transform="translate(0.240234 0.917969)"/>
</clipPath>
<clipPath id="clip5_1247_9">
<rect width="395.52" height="78.166" fill="white" transform="translate(0.240234 0.917969)"/>
</clipPath>
</defs>
</svg>
